<mxfile host="Electron" modified="2024-07-04T09:25:15.128Z" agent="Mozilla/5.0 (Macintosh; Intel Mac OS X 10_15_7) AppleWebKit/537.36 (KHTML, like Gecko) draw.io/24.6.4 Chrome/124.0.6367.207 Electron/30.0.6 Safari/537.36" etag="Y73Qc7dcavl-zRYzU0pB" version="24.6.4" type="device">
  <diagram name="Page-1" id="Pe0lJ-HYStm4SWVixy-A">
    <mxGraphModel dx="734" dy="559" grid="0" gridSize="10" guides="1" tooltips="1" connect="1" arrows="1" fold="1" page="0" pageScale="1" pageWidth="827" pageHeight="1169" math="0" shadow="0">
      <root>
        <mxCell id="0" />
        <mxCell id="1" parent="0" />
        <mxCell id="ZLP_nAVMuMgj4vYPf2Ic-246" value="" style="rounded=0;whiteSpace=wrap;html=1;fillColor=#d5e8d4;strokeColor=#82b366;opacity=50;" vertex="1" parent="1">
          <mxGeometry x="812" y="815" width="317" height="171" as="geometry" />
        </mxCell>
        <mxCell id="ZLP_nAVMuMgj4vYPf2Ic-235" value="" style="rounded=0;whiteSpace=wrap;html=1;fillColor=#dae8fc;strokeColor=#6c8ebf;opacity=50;" vertex="1" parent="1">
          <mxGeometry x="341" y="212" width="405" height="794" as="geometry" />
        </mxCell>
        <mxCell id="ZLP_nAVMuMgj4vYPf2Ic-234" value="" style="rounded=0;whiteSpace=wrap;html=1;fillColor=#FFCE9F;strokeColor=#36393d;opacity=50;glass=0;gradientColor=none;" vertex="1" parent="1">
          <mxGeometry x="812" y="327" width="420" height="477" as="geometry" />
        </mxCell>
        <mxCell id="ZLP_nAVMuMgj4vYPf2Ic-1" value="&lt;font style=&quot;font-size: 18px;&quot;&gt;Drug_exposure&lt;/font&gt;" style="shape=table;startSize=30;container=1;collapsible=1;childLayout=tableLayout;fixedRows=1;rowLines=0;fontStyle=1;align=center;resizeLast=1;html=1;gradientColor=none;swimlaneFillColor=none;perimeterSpacing=0;" vertex="1" parent="1">
          <mxGeometry x="362" y="276" width="372.09523809523796" height="720" as="geometry" />
        </mxCell>
        <mxCell id="ZLP_nAVMuMgj4vYPf2Ic-2" value="" style="shape=tableRow;horizontal=0;startSize=0;swimlaneHead=0;swimlaneBody=0;fillColor=none;collapsible=0;dropTarget=0;points=[[0,0.5],[1,0.5]];portConstraint=eastwest;top=0;left=0;right=0;bottom=1;" vertex="1" parent="ZLP_nAVMuMgj4vYPf2Ic-1">
          <mxGeometry y="30" width="372.09523809523796" height="30" as="geometry" />
        </mxCell>
        <mxCell id="ZLP_nAVMuMgj4vYPf2Ic-3" value="&lt;font style=&quot;font-size: 18px;&quot;&gt;PK&lt;/font&gt;" style="shape=partialRectangle;connectable=0;top=0;left=0;bottom=0;right=0;fontStyle=1;overflow=hidden;whiteSpace=wrap;html=1;" vertex="1" parent="ZLP_nAVMuMgj4vYPf2Ic-2">
          <mxGeometry width="30" height="30" as="geometry">
            <mxRectangle width="30" height="30" as="alternateBounds" />
          </mxGeometry>
        </mxCell>
        <mxCell id="ZLP_nAVMuMgj4vYPf2Ic-4" value="&lt;font style=&quot;font-size: 18px;&quot;&gt;drug exposure_id&lt;/font&gt;" style="shape=partialRectangle;connectable=0;top=0;left=0;bottom=0;right=0;align=left;spacingLeft=6;fontStyle=5;overflow=hidden;whiteSpace=wrap;html=1;" vertex="1" parent="ZLP_nAVMuMgj4vYPf2Ic-2">
          <mxGeometry x="30" width="254.45833333333337" height="30" as="geometry">
            <mxRectangle width="254.45833333333337" height="30" as="alternateBounds" />
          </mxGeometry>
        </mxCell>
        <mxCell id="ZLP_nAVMuMgj4vYPf2Ic-14" value="&lt;font style=&quot;font-size: 18px;&quot;&gt;int&lt;/font&gt;" style="shape=partialRectangle;connectable=0;top=0;left=0;bottom=0;right=0;align=center;spacingLeft=6;fontStyle=5;overflow=hidden;whiteSpace=wrap;html=1;verticalAlign=middle;labelBorderColor=none;labelBackgroundColor=none;" vertex="1" parent="ZLP_nAVMuMgj4vYPf2Ic-2">
          <mxGeometry x="284.45833333333337" width="87.63690476190459" height="30" as="geometry">
            <mxRectangle width="87.63690476190459" height="30" as="alternateBounds" />
          </mxGeometry>
        </mxCell>
        <mxCell id="ZLP_nAVMuMgj4vYPf2Ic-5" value="" style="shape=tableRow;horizontal=0;startSize=0;swimlaneHead=0;swimlaneBody=0;fillColor=none;collapsible=0;dropTarget=0;points=[[0,0.5],[1,0.5]];portConstraint=eastwest;top=0;left=0;right=0;bottom=0;" vertex="1" parent="ZLP_nAVMuMgj4vYPf2Ic-1">
          <mxGeometry y="60" width="372.09523809523796" height="30" as="geometry" />
        </mxCell>
        <mxCell id="ZLP_nAVMuMgj4vYPf2Ic-6" value="FK" style="shape=partialRectangle;connectable=0;top=0;left=0;bottom=0;right=0;editable=1;overflow=hidden;whiteSpace=wrap;html=1;fontSize=18;" vertex="1" parent="ZLP_nAVMuMgj4vYPf2Ic-5">
          <mxGeometry width="30" height="30" as="geometry">
            <mxRectangle width="30" height="30" as="alternateBounds" />
          </mxGeometry>
        </mxCell>
        <mxCell id="ZLP_nAVMuMgj4vYPf2Ic-7" value="person_id" style="shape=partialRectangle;connectable=0;top=0;left=0;bottom=0;right=0;align=left;spacingLeft=6;overflow=hidden;whiteSpace=wrap;html=1;fontSize=18;" vertex="1" parent="ZLP_nAVMuMgj4vYPf2Ic-5">
          <mxGeometry x="30" width="254.45833333333337" height="30" as="geometry">
            <mxRectangle width="254.45833333333337" height="30" as="alternateBounds" />
          </mxGeometry>
        </mxCell>
        <mxCell id="ZLP_nAVMuMgj4vYPf2Ic-15" value="int" style="shape=partialRectangle;connectable=0;top=0;left=0;bottom=0;right=0;align=center;spacingLeft=6;overflow=hidden;whiteSpace=wrap;html=1;verticalAlign=middle;labelBorderColor=none;labelBackgroundColor=none;fontSize=18;" vertex="1" parent="ZLP_nAVMuMgj4vYPf2Ic-5">
          <mxGeometry x="284.45833333333337" width="87.63690476190459" height="30" as="geometry">
            <mxRectangle width="87.63690476190459" height="30" as="alternateBounds" />
          </mxGeometry>
        </mxCell>
        <mxCell id="ZLP_nAVMuMgj4vYPf2Ic-8" value="" style="shape=tableRow;horizontal=0;startSize=0;swimlaneHead=0;swimlaneBody=0;fillColor=none;collapsible=0;dropTarget=0;points=[[0,0.5],[1,0.5]];portConstraint=eastwest;top=0;left=0;right=0;bottom=0;" vertex="1" parent="ZLP_nAVMuMgj4vYPf2Ic-1">
          <mxGeometry y="90" width="372.09523809523796" height="30" as="geometry" />
        </mxCell>
        <mxCell id="ZLP_nAVMuMgj4vYPf2Ic-9" value="FK" style="shape=partialRectangle;connectable=0;top=0;left=0;bottom=0;right=0;editable=1;overflow=hidden;whiteSpace=wrap;html=1;fontSize=18;" vertex="1" parent="ZLP_nAVMuMgj4vYPf2Ic-8">
          <mxGeometry width="30" height="30" as="geometry">
            <mxRectangle width="30" height="30" as="alternateBounds" />
          </mxGeometry>
        </mxCell>
        <mxCell id="ZLP_nAVMuMgj4vYPf2Ic-10" value="drug_concept_id" style="shape=partialRectangle;connectable=0;top=0;left=0;bottom=0;right=0;align=left;spacingLeft=6;overflow=hidden;whiteSpace=wrap;html=1;fontSize=18;" vertex="1" parent="ZLP_nAVMuMgj4vYPf2Ic-8">
          <mxGeometry x="30" width="254.45833333333337" height="30" as="geometry">
            <mxRectangle width="254.45833333333337" height="30" as="alternateBounds" />
          </mxGeometry>
        </mxCell>
        <mxCell id="ZLP_nAVMuMgj4vYPf2Ic-16" value="int" style="shape=partialRectangle;connectable=0;top=0;left=0;bottom=0;right=0;align=center;spacingLeft=6;overflow=hidden;whiteSpace=wrap;html=1;verticalAlign=middle;labelBorderColor=none;labelBackgroundColor=none;fontSize=18;" vertex="1" parent="ZLP_nAVMuMgj4vYPf2Ic-8">
          <mxGeometry x="284.45833333333337" width="87.63690476190459" height="30" as="geometry">
            <mxRectangle width="87.63690476190459" height="30" as="alternateBounds" />
          </mxGeometry>
        </mxCell>
        <mxCell id="ZLP_nAVMuMgj4vYPf2Ic-11" value="" style="shape=tableRow;horizontal=0;startSize=0;swimlaneHead=0;swimlaneBody=0;fillColor=none;collapsible=0;dropTarget=0;points=[[0,0.5],[1,0.5]];portConstraint=eastwest;top=0;left=0;right=0;bottom=0;" vertex="1" parent="ZLP_nAVMuMgj4vYPf2Ic-1">
          <mxGeometry y="120" width="372.09523809523796" height="30" as="geometry" />
        </mxCell>
        <mxCell id="ZLP_nAVMuMgj4vYPf2Ic-12" value="" style="shape=partialRectangle;connectable=0;top=0;left=0;bottom=0;right=0;editable=1;overflow=hidden;whiteSpace=wrap;html=1;fontSize=18;" vertex="1" parent="ZLP_nAVMuMgj4vYPf2Ic-11">
          <mxGeometry width="30" height="30" as="geometry">
            <mxRectangle width="30" height="30" as="alternateBounds" />
          </mxGeometry>
        </mxCell>
        <mxCell id="ZLP_nAVMuMgj4vYPf2Ic-13" value="drug_exposure_start_date" style="shape=partialRectangle;connectable=0;top=0;left=0;bottom=0;right=0;align=left;spacingLeft=6;overflow=hidden;whiteSpace=wrap;html=1;fontSize=18;" vertex="1" parent="ZLP_nAVMuMgj4vYPf2Ic-11">
          <mxGeometry x="30" width="254.45833333333337" height="30" as="geometry">
            <mxRectangle width="254.45833333333337" height="30" as="alternateBounds" />
          </mxGeometry>
        </mxCell>
        <mxCell id="ZLP_nAVMuMgj4vYPf2Ic-17" value="date" style="shape=partialRectangle;connectable=0;top=0;left=0;bottom=0;right=0;align=center;spacingLeft=6;overflow=hidden;whiteSpace=wrap;html=1;verticalAlign=middle;labelBorderColor=none;labelBackgroundColor=none;fontSize=18;" vertex="1" parent="ZLP_nAVMuMgj4vYPf2Ic-11">
          <mxGeometry x="284.45833333333337" width="87.63690476190459" height="30" as="geometry">
            <mxRectangle width="87.63690476190459" height="30" as="alternateBounds" />
          </mxGeometry>
        </mxCell>
        <mxCell id="ZLP_nAVMuMgj4vYPf2Ic-18" style="shape=tableRow;horizontal=0;startSize=0;swimlaneHead=0;swimlaneBody=0;fillColor=none;collapsible=0;dropTarget=0;points=[[0,0.5],[1,0.5]];portConstraint=eastwest;top=0;left=0;right=0;bottom=0;" vertex="1" parent="ZLP_nAVMuMgj4vYPf2Ic-1">
          <mxGeometry y="150" width="372.09523809523796" height="30" as="geometry" />
        </mxCell>
        <mxCell id="ZLP_nAVMuMgj4vYPf2Ic-19" style="shape=partialRectangle;connectable=0;top=0;left=0;bottom=0;right=0;editable=1;overflow=hidden;whiteSpace=wrap;html=1;fontSize=18;" vertex="1" parent="ZLP_nAVMuMgj4vYPf2Ic-18">
          <mxGeometry width="30" height="30" as="geometry">
            <mxRectangle width="30" height="30" as="alternateBounds" />
          </mxGeometry>
        </mxCell>
        <mxCell id="ZLP_nAVMuMgj4vYPf2Ic-20" value="drug_exposure_start_datetime" style="shape=partialRectangle;connectable=0;top=0;left=0;bottom=0;right=0;align=left;spacingLeft=6;overflow=hidden;whiteSpace=wrap;html=1;fontSize=18;" vertex="1" parent="ZLP_nAVMuMgj4vYPf2Ic-18">
          <mxGeometry x="30" width="254.45833333333337" height="30" as="geometry">
            <mxRectangle width="254.45833333333337" height="30" as="alternateBounds" />
          </mxGeometry>
        </mxCell>
        <mxCell id="ZLP_nAVMuMgj4vYPf2Ic-21" value="datetime" style="shape=partialRectangle;connectable=0;top=0;left=0;bottom=0;right=0;align=center;spacingLeft=6;overflow=hidden;whiteSpace=wrap;html=1;verticalAlign=middle;labelBorderColor=none;labelBackgroundColor=none;fontSize=18;" vertex="1" parent="ZLP_nAVMuMgj4vYPf2Ic-18">
          <mxGeometry x="284.45833333333337" width="87.63690476190459" height="30" as="geometry">
            <mxRectangle width="87.63690476190459" height="30" as="alternateBounds" />
          </mxGeometry>
        </mxCell>
        <mxCell id="ZLP_nAVMuMgj4vYPf2Ic-22" style="shape=tableRow;horizontal=0;startSize=0;swimlaneHead=0;swimlaneBody=0;fillColor=none;collapsible=0;dropTarget=0;points=[[0,0.5],[1,0.5]];portConstraint=eastwest;top=0;left=0;right=0;bottom=0;" vertex="1" parent="ZLP_nAVMuMgj4vYPf2Ic-1">
          <mxGeometry y="180" width="372.09523809523796" height="30" as="geometry" />
        </mxCell>
        <mxCell id="ZLP_nAVMuMgj4vYPf2Ic-23" style="shape=partialRectangle;connectable=0;top=0;left=0;bottom=0;right=0;editable=1;overflow=hidden;whiteSpace=wrap;html=1;fontSize=18;" vertex="1" parent="ZLP_nAVMuMgj4vYPf2Ic-22">
          <mxGeometry width="30" height="30" as="geometry">
            <mxRectangle width="30" height="30" as="alternateBounds" />
          </mxGeometry>
        </mxCell>
        <mxCell id="ZLP_nAVMuMgj4vYPf2Ic-24" value="drug_exposure_end_date" style="shape=partialRectangle;connectable=0;top=0;left=0;bottom=0;right=0;align=left;spacingLeft=6;overflow=hidden;whiteSpace=wrap;html=1;fontSize=18;" vertex="1" parent="ZLP_nAVMuMgj4vYPf2Ic-22">
          <mxGeometry x="30" width="254.45833333333337" height="30" as="geometry">
            <mxRectangle width="254.45833333333337" height="30" as="alternateBounds" />
          </mxGeometry>
        </mxCell>
        <mxCell id="ZLP_nAVMuMgj4vYPf2Ic-25" value="date" style="shape=partialRectangle;connectable=0;top=0;left=0;bottom=0;right=0;align=center;spacingLeft=6;overflow=hidden;whiteSpace=wrap;html=1;verticalAlign=middle;labelBorderColor=none;labelBackgroundColor=none;fontSize=18;" vertex="1" parent="ZLP_nAVMuMgj4vYPf2Ic-22">
          <mxGeometry x="284.45833333333337" width="87.63690476190459" height="30" as="geometry">
            <mxRectangle width="87.63690476190459" height="30" as="alternateBounds" />
          </mxGeometry>
        </mxCell>
        <mxCell id="ZLP_nAVMuMgj4vYPf2Ic-26" style="shape=tableRow;horizontal=0;startSize=0;swimlaneHead=0;swimlaneBody=0;fillColor=none;collapsible=0;dropTarget=0;points=[[0,0.5],[1,0.5]];portConstraint=eastwest;top=0;left=0;right=0;bottom=0;" vertex="1" parent="ZLP_nAVMuMgj4vYPf2Ic-1">
          <mxGeometry y="210" width="372.09523809523796" height="30" as="geometry" />
        </mxCell>
        <mxCell id="ZLP_nAVMuMgj4vYPf2Ic-27" style="shape=partialRectangle;connectable=0;top=0;left=0;bottom=0;right=0;editable=1;overflow=hidden;whiteSpace=wrap;html=1;fontSize=18;" vertex="1" parent="ZLP_nAVMuMgj4vYPf2Ic-26">
          <mxGeometry width="30" height="30" as="geometry">
            <mxRectangle width="30" height="30" as="alternateBounds" />
          </mxGeometry>
        </mxCell>
        <mxCell id="ZLP_nAVMuMgj4vYPf2Ic-28" value="drug_exposure_end_datetime" style="shape=partialRectangle;connectable=0;top=0;left=0;bottom=0;right=0;align=left;spacingLeft=6;overflow=hidden;whiteSpace=wrap;html=1;fontSize=18;" vertex="1" parent="ZLP_nAVMuMgj4vYPf2Ic-26">
          <mxGeometry x="30" width="254.45833333333337" height="30" as="geometry">
            <mxRectangle width="254.45833333333337" height="30" as="alternateBounds" />
          </mxGeometry>
        </mxCell>
        <mxCell id="ZLP_nAVMuMgj4vYPf2Ic-29" value="datetime" style="shape=partialRectangle;connectable=0;top=0;left=0;bottom=0;right=0;align=center;spacingLeft=6;overflow=hidden;whiteSpace=wrap;html=1;verticalAlign=middle;labelBorderColor=none;labelBackgroundColor=none;fontSize=18;" vertex="1" parent="ZLP_nAVMuMgj4vYPf2Ic-26">
          <mxGeometry x="284.45833333333337" width="87.63690476190459" height="30" as="geometry">
            <mxRectangle width="87.63690476190459" height="30" as="alternateBounds" />
          </mxGeometry>
        </mxCell>
        <mxCell id="ZLP_nAVMuMgj4vYPf2Ic-30" style="shape=tableRow;horizontal=0;startSize=0;swimlaneHead=0;swimlaneBody=0;fillColor=none;collapsible=0;dropTarget=0;points=[[0,0.5],[1,0.5]];portConstraint=eastwest;top=0;left=0;right=0;bottom=0;" vertex="1" parent="ZLP_nAVMuMgj4vYPf2Ic-1">
          <mxGeometry y="240" width="372.09523809523796" height="30" as="geometry" />
        </mxCell>
        <mxCell id="ZLP_nAVMuMgj4vYPf2Ic-31" style="shape=partialRectangle;connectable=0;top=0;left=0;bottom=0;right=0;editable=1;overflow=hidden;whiteSpace=wrap;html=1;fontSize=18;" vertex="1" parent="ZLP_nAVMuMgj4vYPf2Ic-30">
          <mxGeometry width="30" height="30" as="geometry">
            <mxRectangle width="30" height="30" as="alternateBounds" />
          </mxGeometry>
        </mxCell>
        <mxCell id="ZLP_nAVMuMgj4vYPf2Ic-32" value="verbatim_end_date" style="shape=partialRectangle;connectable=0;top=0;left=0;bottom=0;right=0;align=left;spacingLeft=6;overflow=hidden;whiteSpace=wrap;html=1;fontSize=18;" vertex="1" parent="ZLP_nAVMuMgj4vYPf2Ic-30">
          <mxGeometry x="30" width="254.45833333333337" height="30" as="geometry">
            <mxRectangle width="254.45833333333337" height="30" as="alternateBounds" />
          </mxGeometry>
        </mxCell>
        <mxCell id="ZLP_nAVMuMgj4vYPf2Ic-33" value="date" style="shape=partialRectangle;connectable=0;top=0;left=0;bottom=0;right=0;align=center;spacingLeft=6;overflow=hidden;whiteSpace=wrap;html=1;verticalAlign=middle;labelBorderColor=none;labelBackgroundColor=none;fontSize=18;" vertex="1" parent="ZLP_nAVMuMgj4vYPf2Ic-30">
          <mxGeometry x="284.45833333333337" width="87.63690476190459" height="30" as="geometry">
            <mxRectangle width="87.63690476190459" height="30" as="alternateBounds" />
          </mxGeometry>
        </mxCell>
        <mxCell id="ZLP_nAVMuMgj4vYPf2Ic-34" style="shape=tableRow;horizontal=0;startSize=0;swimlaneHead=0;swimlaneBody=0;fillColor=none;collapsible=0;dropTarget=0;points=[[0,0.5],[1,0.5]];portConstraint=eastwest;top=0;left=0;right=0;bottom=0;" vertex="1" parent="ZLP_nAVMuMgj4vYPf2Ic-1">
          <mxGeometry y="270" width="372.09523809523796" height="30" as="geometry" />
        </mxCell>
        <mxCell id="ZLP_nAVMuMgj4vYPf2Ic-35" value="FK" style="shape=partialRectangle;connectable=0;top=0;left=0;bottom=0;right=0;editable=1;overflow=hidden;whiteSpace=wrap;html=1;fontSize=18;" vertex="1" parent="ZLP_nAVMuMgj4vYPf2Ic-34">
          <mxGeometry width="30" height="30" as="geometry">
            <mxRectangle width="30" height="30" as="alternateBounds" />
          </mxGeometry>
        </mxCell>
        <mxCell id="ZLP_nAVMuMgj4vYPf2Ic-36" value="drug_type_concept_id" style="shape=partialRectangle;connectable=0;top=0;left=0;bottom=0;right=0;align=left;spacingLeft=6;overflow=hidden;whiteSpace=wrap;html=1;fontSize=18;" vertex="1" parent="ZLP_nAVMuMgj4vYPf2Ic-34">
          <mxGeometry x="30" width="254.45833333333337" height="30" as="geometry">
            <mxRectangle width="254.45833333333337" height="30" as="alternateBounds" />
          </mxGeometry>
        </mxCell>
        <mxCell id="ZLP_nAVMuMgj4vYPf2Ic-37" value="int" style="shape=partialRectangle;connectable=0;top=0;left=0;bottom=0;right=0;align=center;spacingLeft=6;overflow=hidden;whiteSpace=wrap;html=1;verticalAlign=middle;labelBorderColor=none;labelBackgroundColor=none;fontSize=18;" vertex="1" parent="ZLP_nAVMuMgj4vYPf2Ic-34">
          <mxGeometry x="284.45833333333337" width="87.63690476190459" height="30" as="geometry">
            <mxRectangle width="87.63690476190459" height="30" as="alternateBounds" />
          </mxGeometry>
        </mxCell>
        <mxCell id="ZLP_nAVMuMgj4vYPf2Ic-38" style="shape=tableRow;horizontal=0;startSize=0;swimlaneHead=0;swimlaneBody=0;fillColor=none;collapsible=0;dropTarget=0;points=[[0,0.5],[1,0.5]];portConstraint=eastwest;top=0;left=0;right=0;bottom=0;" vertex="1" parent="ZLP_nAVMuMgj4vYPf2Ic-1">
          <mxGeometry y="300" width="372.09523809523796" height="30" as="geometry" />
        </mxCell>
        <mxCell id="ZLP_nAVMuMgj4vYPf2Ic-39" style="shape=partialRectangle;connectable=0;top=0;left=0;bottom=0;right=0;editable=1;overflow=hidden;whiteSpace=wrap;html=1;fontSize=18;" vertex="1" parent="ZLP_nAVMuMgj4vYPf2Ic-38">
          <mxGeometry width="30" height="30" as="geometry">
            <mxRectangle width="30" height="30" as="alternateBounds" />
          </mxGeometry>
        </mxCell>
        <mxCell id="ZLP_nAVMuMgj4vYPf2Ic-40" value="stop_reason" style="shape=partialRectangle;connectable=0;top=0;left=0;bottom=0;right=0;align=left;spacingLeft=6;overflow=hidden;whiteSpace=wrap;html=1;fontSize=18;" vertex="1" parent="ZLP_nAVMuMgj4vYPf2Ic-38">
          <mxGeometry x="30" width="254.45833333333337" height="30" as="geometry">
            <mxRectangle width="254.45833333333337" height="30" as="alternateBounds" />
          </mxGeometry>
        </mxCell>
        <mxCell id="ZLP_nAVMuMgj4vYPf2Ic-41" value="varchar" style="shape=partialRectangle;connectable=0;top=0;left=0;bottom=0;right=0;align=center;spacingLeft=6;overflow=hidden;whiteSpace=wrap;html=1;verticalAlign=middle;labelBorderColor=none;labelBackgroundColor=none;fontSize=18;" vertex="1" parent="ZLP_nAVMuMgj4vYPf2Ic-38">
          <mxGeometry x="284.45833333333337" width="87.63690476190459" height="30" as="geometry">
            <mxRectangle width="87.63690476190459" height="30" as="alternateBounds" />
          </mxGeometry>
        </mxCell>
        <mxCell id="ZLP_nAVMuMgj4vYPf2Ic-42" style="shape=tableRow;horizontal=0;startSize=0;swimlaneHead=0;swimlaneBody=0;fillColor=none;collapsible=0;dropTarget=0;points=[[0,0.5],[1,0.5]];portConstraint=eastwest;top=0;left=0;right=0;bottom=0;" vertex="1" parent="ZLP_nAVMuMgj4vYPf2Ic-1">
          <mxGeometry y="330" width="372.09523809523796" height="30" as="geometry" />
        </mxCell>
        <mxCell id="ZLP_nAVMuMgj4vYPf2Ic-43" style="shape=partialRectangle;connectable=0;top=0;left=0;bottom=0;right=0;editable=1;overflow=hidden;whiteSpace=wrap;html=1;fontSize=18;" vertex="1" parent="ZLP_nAVMuMgj4vYPf2Ic-42">
          <mxGeometry width="30" height="30" as="geometry">
            <mxRectangle width="30" height="30" as="alternateBounds" />
          </mxGeometry>
        </mxCell>
        <mxCell id="ZLP_nAVMuMgj4vYPf2Ic-44" value="refills" style="shape=partialRectangle;connectable=0;top=0;left=0;bottom=0;right=0;align=left;spacingLeft=6;overflow=hidden;whiteSpace=wrap;html=1;fontSize=18;" vertex="1" parent="ZLP_nAVMuMgj4vYPf2Ic-42">
          <mxGeometry x="30" width="254.45833333333337" height="30" as="geometry">
            <mxRectangle width="254.45833333333337" height="30" as="alternateBounds" />
          </mxGeometry>
        </mxCell>
        <mxCell id="ZLP_nAVMuMgj4vYPf2Ic-45" value="int" style="shape=partialRectangle;connectable=0;top=0;left=0;bottom=0;right=0;align=center;spacingLeft=6;overflow=hidden;whiteSpace=wrap;html=1;verticalAlign=middle;labelBorderColor=none;labelBackgroundColor=none;fontSize=18;" vertex="1" parent="ZLP_nAVMuMgj4vYPf2Ic-42">
          <mxGeometry x="284.45833333333337" width="87.63690476190459" height="30" as="geometry">
            <mxRectangle width="87.63690476190459" height="30" as="alternateBounds" />
          </mxGeometry>
        </mxCell>
        <mxCell id="ZLP_nAVMuMgj4vYPf2Ic-46" style="shape=tableRow;horizontal=0;startSize=0;swimlaneHead=0;swimlaneBody=0;fillColor=none;collapsible=0;dropTarget=0;points=[[0,0.5],[1,0.5]];portConstraint=eastwest;top=0;left=0;right=0;bottom=0;" vertex="1" parent="ZLP_nAVMuMgj4vYPf2Ic-1">
          <mxGeometry y="360" width="372.09523809523796" height="30" as="geometry" />
        </mxCell>
        <mxCell id="ZLP_nAVMuMgj4vYPf2Ic-47" style="shape=partialRectangle;connectable=0;top=0;left=0;bottom=0;right=0;editable=1;overflow=hidden;whiteSpace=wrap;html=1;fontSize=18;" vertex="1" parent="ZLP_nAVMuMgj4vYPf2Ic-46">
          <mxGeometry width="30" height="30" as="geometry">
            <mxRectangle width="30" height="30" as="alternateBounds" />
          </mxGeometry>
        </mxCell>
        <mxCell id="ZLP_nAVMuMgj4vYPf2Ic-48" value="quantity" style="shape=partialRectangle;connectable=0;top=0;left=0;bottom=0;right=0;align=left;spacingLeft=6;overflow=hidden;whiteSpace=wrap;html=1;fontSize=18;" vertex="1" parent="ZLP_nAVMuMgj4vYPf2Ic-46">
          <mxGeometry x="30" width="254.45833333333337" height="30" as="geometry">
            <mxRectangle width="254.45833333333337" height="30" as="alternateBounds" />
          </mxGeometry>
        </mxCell>
        <mxCell id="ZLP_nAVMuMgj4vYPf2Ic-49" value="float" style="shape=partialRectangle;connectable=0;top=0;left=0;bottom=0;right=0;align=center;spacingLeft=6;overflow=hidden;whiteSpace=wrap;html=1;verticalAlign=middle;labelBorderColor=none;labelBackgroundColor=none;fontSize=18;" vertex="1" parent="ZLP_nAVMuMgj4vYPf2Ic-46">
          <mxGeometry x="284.45833333333337" width="87.63690476190459" height="30" as="geometry">
            <mxRectangle width="87.63690476190459" height="30" as="alternateBounds" />
          </mxGeometry>
        </mxCell>
        <mxCell id="ZLP_nAVMuMgj4vYPf2Ic-50" style="shape=tableRow;horizontal=0;startSize=0;swimlaneHead=0;swimlaneBody=0;fillColor=none;collapsible=0;dropTarget=0;points=[[0,0.5],[1,0.5]];portConstraint=eastwest;top=0;left=0;right=0;bottom=0;" vertex="1" parent="ZLP_nAVMuMgj4vYPf2Ic-1">
          <mxGeometry y="390" width="372.09523809523796" height="30" as="geometry" />
        </mxCell>
        <mxCell id="ZLP_nAVMuMgj4vYPf2Ic-51" style="shape=partialRectangle;connectable=0;top=0;left=0;bottom=0;right=0;editable=1;overflow=hidden;whiteSpace=wrap;html=1;fontSize=18;" vertex="1" parent="ZLP_nAVMuMgj4vYPf2Ic-50">
          <mxGeometry width="30" height="30" as="geometry">
            <mxRectangle width="30" height="30" as="alternateBounds" />
          </mxGeometry>
        </mxCell>
        <mxCell id="ZLP_nAVMuMgj4vYPf2Ic-52" value="days_supply" style="shape=partialRectangle;connectable=0;top=0;left=0;bottom=0;right=0;align=left;spacingLeft=6;overflow=hidden;whiteSpace=wrap;html=1;fontSize=18;" vertex="1" parent="ZLP_nAVMuMgj4vYPf2Ic-50">
          <mxGeometry x="30" width="254.45833333333337" height="30" as="geometry">
            <mxRectangle width="254.45833333333337" height="30" as="alternateBounds" />
          </mxGeometry>
        </mxCell>
        <mxCell id="ZLP_nAVMuMgj4vYPf2Ic-53" value="int" style="shape=partialRectangle;connectable=0;top=0;left=0;bottom=0;right=0;align=center;spacingLeft=6;overflow=hidden;whiteSpace=wrap;html=1;verticalAlign=middle;labelBorderColor=none;labelBackgroundColor=none;fontSize=18;" vertex="1" parent="ZLP_nAVMuMgj4vYPf2Ic-50">
          <mxGeometry x="284.45833333333337" width="87.63690476190459" height="30" as="geometry">
            <mxRectangle width="87.63690476190459" height="30" as="alternateBounds" />
          </mxGeometry>
        </mxCell>
        <mxCell id="ZLP_nAVMuMgj4vYPf2Ic-54" style="shape=tableRow;horizontal=0;startSize=0;swimlaneHead=0;swimlaneBody=0;fillColor=none;collapsible=0;dropTarget=0;points=[[0,0.5],[1,0.5]];portConstraint=eastwest;top=0;left=0;right=0;bottom=0;" vertex="1" parent="ZLP_nAVMuMgj4vYPf2Ic-1">
          <mxGeometry y="420" width="372.09523809523796" height="30" as="geometry" />
        </mxCell>
        <mxCell id="ZLP_nAVMuMgj4vYPf2Ic-55" style="shape=partialRectangle;connectable=0;top=0;left=0;bottom=0;right=0;editable=1;overflow=hidden;whiteSpace=wrap;html=1;fontSize=18;" vertex="1" parent="ZLP_nAVMuMgj4vYPf2Ic-54">
          <mxGeometry width="30" height="30" as="geometry">
            <mxRectangle width="30" height="30" as="alternateBounds" />
          </mxGeometry>
        </mxCell>
        <mxCell id="ZLP_nAVMuMgj4vYPf2Ic-56" value="sig" style="shape=partialRectangle;connectable=0;top=0;left=0;bottom=0;right=0;align=left;spacingLeft=6;overflow=hidden;whiteSpace=wrap;html=1;fontSize=18;" vertex="1" parent="ZLP_nAVMuMgj4vYPf2Ic-54">
          <mxGeometry x="30" width="254.45833333333337" height="30" as="geometry">
            <mxRectangle width="254.45833333333337" height="30" as="alternateBounds" />
          </mxGeometry>
        </mxCell>
        <mxCell id="ZLP_nAVMuMgj4vYPf2Ic-57" value="varchar" style="shape=partialRectangle;connectable=0;top=0;left=0;bottom=0;right=0;align=center;spacingLeft=6;overflow=hidden;whiteSpace=wrap;html=1;verticalAlign=middle;labelBorderColor=none;labelBackgroundColor=none;fontSize=18;" vertex="1" parent="ZLP_nAVMuMgj4vYPf2Ic-54">
          <mxGeometry x="284.45833333333337" width="87.63690476190459" height="30" as="geometry">
            <mxRectangle width="87.63690476190459" height="30" as="alternateBounds" />
          </mxGeometry>
        </mxCell>
        <mxCell id="ZLP_nAVMuMgj4vYPf2Ic-58" style="shape=tableRow;horizontal=0;startSize=0;swimlaneHead=0;swimlaneBody=0;fillColor=none;collapsible=0;dropTarget=0;points=[[0,0.5],[1,0.5]];portConstraint=eastwest;top=0;left=0;right=0;bottom=0;" vertex="1" parent="ZLP_nAVMuMgj4vYPf2Ic-1">
          <mxGeometry y="450" width="372.09523809523796" height="30" as="geometry" />
        </mxCell>
        <mxCell id="ZLP_nAVMuMgj4vYPf2Ic-59" style="shape=partialRectangle;connectable=0;top=0;left=0;bottom=0;right=0;editable=1;overflow=hidden;whiteSpace=wrap;html=1;fontSize=18;" vertex="1" parent="ZLP_nAVMuMgj4vYPf2Ic-58">
          <mxGeometry width="30" height="30" as="geometry">
            <mxRectangle width="30" height="30" as="alternateBounds" />
          </mxGeometry>
        </mxCell>
        <mxCell id="ZLP_nAVMuMgj4vYPf2Ic-60" value="route_concept_id" style="shape=partialRectangle;connectable=0;top=0;left=0;bottom=0;right=0;align=left;spacingLeft=6;overflow=hidden;whiteSpace=wrap;html=1;fontSize=18;" vertex="1" parent="ZLP_nAVMuMgj4vYPf2Ic-58">
          <mxGeometry x="30" width="254.45833333333337" height="30" as="geometry">
            <mxRectangle width="254.45833333333337" height="30" as="alternateBounds" />
          </mxGeometry>
        </mxCell>
        <mxCell id="ZLP_nAVMuMgj4vYPf2Ic-61" value="int" style="shape=partialRectangle;connectable=0;top=0;left=0;bottom=0;right=0;align=center;spacingLeft=6;overflow=hidden;whiteSpace=wrap;html=1;verticalAlign=middle;labelBorderColor=none;labelBackgroundColor=none;fontSize=18;" vertex="1" parent="ZLP_nAVMuMgj4vYPf2Ic-58">
          <mxGeometry x="284.45833333333337" width="87.63690476190459" height="30" as="geometry">
            <mxRectangle width="87.63690476190459" height="30" as="alternateBounds" />
          </mxGeometry>
        </mxCell>
        <mxCell id="ZLP_nAVMuMgj4vYPf2Ic-62" style="shape=tableRow;horizontal=0;startSize=0;swimlaneHead=0;swimlaneBody=0;fillColor=none;collapsible=0;dropTarget=0;points=[[0,0.5],[1,0.5]];portConstraint=eastwest;top=0;left=0;right=0;bottom=0;" vertex="1" parent="ZLP_nAVMuMgj4vYPf2Ic-1">
          <mxGeometry y="480" width="372.09523809523796" height="30" as="geometry" />
        </mxCell>
        <mxCell id="ZLP_nAVMuMgj4vYPf2Ic-63" style="shape=partialRectangle;connectable=0;top=0;left=0;bottom=0;right=0;editable=1;overflow=hidden;whiteSpace=wrap;html=1;fontSize=18;" vertex="1" parent="ZLP_nAVMuMgj4vYPf2Ic-62">
          <mxGeometry width="30" height="30" as="geometry">
            <mxRectangle width="30" height="30" as="alternateBounds" />
          </mxGeometry>
        </mxCell>
        <mxCell id="ZLP_nAVMuMgj4vYPf2Ic-64" value="lot_number" style="shape=partialRectangle;connectable=0;top=0;left=0;bottom=0;right=0;align=left;spacingLeft=6;overflow=hidden;whiteSpace=wrap;html=1;fontSize=18;" vertex="1" parent="ZLP_nAVMuMgj4vYPf2Ic-62">
          <mxGeometry x="30" width="254.45833333333337" height="30" as="geometry">
            <mxRectangle width="254.45833333333337" height="30" as="alternateBounds" />
          </mxGeometry>
        </mxCell>
        <mxCell id="ZLP_nAVMuMgj4vYPf2Ic-65" value="varchar" style="shape=partialRectangle;connectable=0;top=0;left=0;bottom=0;right=0;align=center;spacingLeft=6;overflow=hidden;whiteSpace=wrap;html=1;verticalAlign=middle;labelBorderColor=none;labelBackgroundColor=none;fontSize=18;" vertex="1" parent="ZLP_nAVMuMgj4vYPf2Ic-62">
          <mxGeometry x="284.45833333333337" width="87.63690476190459" height="30" as="geometry">
            <mxRectangle width="87.63690476190459" height="30" as="alternateBounds" />
          </mxGeometry>
        </mxCell>
        <mxCell id="ZLP_nAVMuMgj4vYPf2Ic-66" style="shape=tableRow;horizontal=0;startSize=0;swimlaneHead=0;swimlaneBody=0;fillColor=none;collapsible=0;dropTarget=0;points=[[0,0.5],[1,0.5]];portConstraint=eastwest;top=0;left=0;right=0;bottom=0;" vertex="1" parent="ZLP_nAVMuMgj4vYPf2Ic-1">
          <mxGeometry y="510" width="372.09523809523796" height="30" as="geometry" />
        </mxCell>
        <mxCell id="ZLP_nAVMuMgj4vYPf2Ic-67" value="FK" style="shape=partialRectangle;connectable=0;top=0;left=0;bottom=0;right=0;editable=1;overflow=hidden;whiteSpace=wrap;html=1;fontSize=18;" vertex="1" parent="ZLP_nAVMuMgj4vYPf2Ic-66">
          <mxGeometry width="30" height="30" as="geometry">
            <mxRectangle width="30" height="30" as="alternateBounds" />
          </mxGeometry>
        </mxCell>
        <mxCell id="ZLP_nAVMuMgj4vYPf2Ic-68" value="provider_id" style="shape=partialRectangle;connectable=0;top=0;left=0;bottom=0;right=0;align=left;spacingLeft=6;overflow=hidden;whiteSpace=wrap;html=1;fontSize=18;" vertex="1" parent="ZLP_nAVMuMgj4vYPf2Ic-66">
          <mxGeometry x="30" width="254.45833333333337" height="30" as="geometry">
            <mxRectangle width="254.45833333333337" height="30" as="alternateBounds" />
          </mxGeometry>
        </mxCell>
        <mxCell id="ZLP_nAVMuMgj4vYPf2Ic-69" value="int" style="shape=partialRectangle;connectable=0;top=0;left=0;bottom=0;right=0;align=center;spacingLeft=6;overflow=hidden;whiteSpace=wrap;html=1;verticalAlign=middle;labelBorderColor=none;labelBackgroundColor=none;fontSize=18;" vertex="1" parent="ZLP_nAVMuMgj4vYPf2Ic-66">
          <mxGeometry x="284.45833333333337" width="87.63690476190459" height="30" as="geometry">
            <mxRectangle width="87.63690476190459" height="30" as="alternateBounds" />
          </mxGeometry>
        </mxCell>
        <mxCell id="ZLP_nAVMuMgj4vYPf2Ic-70" style="shape=tableRow;horizontal=0;startSize=0;swimlaneHead=0;swimlaneBody=0;fillColor=none;collapsible=0;dropTarget=0;points=[[0,0.5],[1,0.5]];portConstraint=eastwest;top=0;left=0;right=0;bottom=0;" vertex="1" parent="ZLP_nAVMuMgj4vYPf2Ic-1">
          <mxGeometry y="540" width="372.09523809523796" height="30" as="geometry" />
        </mxCell>
        <mxCell id="ZLP_nAVMuMgj4vYPf2Ic-71" style="shape=partialRectangle;connectable=0;top=0;left=0;bottom=0;right=0;editable=1;overflow=hidden;whiteSpace=wrap;html=1;fontSize=18;" vertex="1" parent="ZLP_nAVMuMgj4vYPf2Ic-70">
          <mxGeometry width="30" height="30" as="geometry">
            <mxRectangle width="30" height="30" as="alternateBounds" />
          </mxGeometry>
        </mxCell>
        <mxCell id="ZLP_nAVMuMgj4vYPf2Ic-72" value="visit_occurence_id" style="shape=partialRectangle;connectable=0;top=0;left=0;bottom=0;right=0;align=left;spacingLeft=6;overflow=hidden;whiteSpace=wrap;html=1;fontSize=18;" vertex="1" parent="ZLP_nAVMuMgj4vYPf2Ic-70">
          <mxGeometry x="30" width="254.45833333333337" height="30" as="geometry">
            <mxRectangle width="254.45833333333337" height="30" as="alternateBounds" />
          </mxGeometry>
        </mxCell>
        <mxCell id="ZLP_nAVMuMgj4vYPf2Ic-73" value="int" style="shape=partialRectangle;connectable=0;top=0;left=0;bottom=0;right=0;align=center;spacingLeft=6;overflow=hidden;whiteSpace=wrap;html=1;verticalAlign=middle;labelBorderColor=none;labelBackgroundColor=none;fontSize=18;" vertex="1" parent="ZLP_nAVMuMgj4vYPf2Ic-70">
          <mxGeometry x="284.45833333333337" width="87.63690476190459" height="30" as="geometry">
            <mxRectangle width="87.63690476190459" height="30" as="alternateBounds" />
          </mxGeometry>
        </mxCell>
        <mxCell id="ZLP_nAVMuMgj4vYPf2Ic-74" style="shape=tableRow;horizontal=0;startSize=0;swimlaneHead=0;swimlaneBody=0;fillColor=none;collapsible=0;dropTarget=0;points=[[0,0.5],[1,0.5]];portConstraint=eastwest;top=0;left=0;right=0;bottom=0;" vertex="1" parent="ZLP_nAVMuMgj4vYPf2Ic-1">
          <mxGeometry y="570" width="372.09523809523796" height="30" as="geometry" />
        </mxCell>
        <mxCell id="ZLP_nAVMuMgj4vYPf2Ic-75" style="shape=partialRectangle;connectable=0;top=0;left=0;bottom=0;right=0;editable=1;overflow=hidden;whiteSpace=wrap;html=1;fontSize=18;" vertex="1" parent="ZLP_nAVMuMgj4vYPf2Ic-74">
          <mxGeometry width="30" height="30" as="geometry">
            <mxRectangle width="30" height="30" as="alternateBounds" />
          </mxGeometry>
        </mxCell>
        <mxCell id="ZLP_nAVMuMgj4vYPf2Ic-76" value="visit_detail_id" style="shape=partialRectangle;connectable=0;top=0;left=0;bottom=0;right=0;align=left;spacingLeft=6;overflow=hidden;whiteSpace=wrap;html=1;fontSize=18;" vertex="1" parent="ZLP_nAVMuMgj4vYPf2Ic-74">
          <mxGeometry x="30" width="254.45833333333337" height="30" as="geometry">
            <mxRectangle width="254.45833333333337" height="30" as="alternateBounds" />
          </mxGeometry>
        </mxCell>
        <mxCell id="ZLP_nAVMuMgj4vYPf2Ic-77" value="int" style="shape=partialRectangle;connectable=0;top=0;left=0;bottom=0;right=0;align=center;spacingLeft=6;overflow=hidden;whiteSpace=wrap;html=1;verticalAlign=middle;labelBorderColor=none;labelBackgroundColor=none;fontSize=18;" vertex="1" parent="ZLP_nAVMuMgj4vYPf2Ic-74">
          <mxGeometry x="284.45833333333337" width="87.63690476190459" height="30" as="geometry">
            <mxRectangle width="87.63690476190459" height="30" as="alternateBounds" />
          </mxGeometry>
        </mxCell>
        <mxCell id="ZLP_nAVMuMgj4vYPf2Ic-78" style="shape=tableRow;horizontal=0;startSize=0;swimlaneHead=0;swimlaneBody=0;fillColor=none;collapsible=0;dropTarget=0;points=[[0,0.5],[1,0.5]];portConstraint=eastwest;top=0;left=0;right=0;bottom=0;" vertex="1" parent="ZLP_nAVMuMgj4vYPf2Ic-1">
          <mxGeometry y="600" width="372.09523809523796" height="30" as="geometry" />
        </mxCell>
        <mxCell id="ZLP_nAVMuMgj4vYPf2Ic-79" style="shape=partialRectangle;connectable=0;top=0;left=0;bottom=0;right=0;editable=1;overflow=hidden;whiteSpace=wrap;html=1;fontSize=18;" vertex="1" parent="ZLP_nAVMuMgj4vYPf2Ic-78">
          <mxGeometry width="30" height="30" as="geometry">
            <mxRectangle width="30" height="30" as="alternateBounds" />
          </mxGeometry>
        </mxCell>
        <mxCell id="ZLP_nAVMuMgj4vYPf2Ic-80" value="drug_source_value" style="shape=partialRectangle;connectable=0;top=0;left=0;bottom=0;right=0;align=left;spacingLeft=6;overflow=hidden;whiteSpace=wrap;html=1;fontSize=18;" vertex="1" parent="ZLP_nAVMuMgj4vYPf2Ic-78">
          <mxGeometry x="30" width="254.45833333333337" height="30" as="geometry">
            <mxRectangle width="254.45833333333337" height="30" as="alternateBounds" />
          </mxGeometry>
        </mxCell>
        <mxCell id="ZLP_nAVMuMgj4vYPf2Ic-81" value="varchar" style="shape=partialRectangle;connectable=0;top=0;left=0;bottom=0;right=0;align=center;spacingLeft=6;overflow=hidden;whiteSpace=wrap;html=1;verticalAlign=middle;labelBorderColor=none;labelBackgroundColor=none;fontSize=18;" vertex="1" parent="ZLP_nAVMuMgj4vYPf2Ic-78">
          <mxGeometry x="284.45833333333337" width="87.63690476190459" height="30" as="geometry">
            <mxRectangle width="87.63690476190459" height="30" as="alternateBounds" />
          </mxGeometry>
        </mxCell>
        <mxCell id="ZLP_nAVMuMgj4vYPf2Ic-82" style="shape=tableRow;horizontal=0;startSize=0;swimlaneHead=0;swimlaneBody=0;fillColor=none;collapsible=0;dropTarget=0;points=[[0,0.5],[1,0.5]];portConstraint=eastwest;top=0;left=0;right=0;bottom=0;" vertex="1" parent="ZLP_nAVMuMgj4vYPf2Ic-1">
          <mxGeometry y="630" width="372.09523809523796" height="30" as="geometry" />
        </mxCell>
        <mxCell id="ZLP_nAVMuMgj4vYPf2Ic-83" style="shape=partialRectangle;connectable=0;top=0;left=0;bottom=0;right=0;editable=1;overflow=hidden;whiteSpace=wrap;html=1;fontSize=18;" vertex="1" parent="ZLP_nAVMuMgj4vYPf2Ic-82">
          <mxGeometry width="30" height="30" as="geometry">
            <mxRectangle width="30" height="30" as="alternateBounds" />
          </mxGeometry>
        </mxCell>
        <mxCell id="ZLP_nAVMuMgj4vYPf2Ic-84" value="drug_source_concept_id" style="shape=partialRectangle;connectable=0;top=0;left=0;bottom=0;right=0;align=left;spacingLeft=6;overflow=hidden;whiteSpace=wrap;html=1;fontSize=18;" vertex="1" parent="ZLP_nAVMuMgj4vYPf2Ic-82">
          <mxGeometry x="30" width="254.45833333333337" height="30" as="geometry">
            <mxRectangle width="254.45833333333337" height="30" as="alternateBounds" />
          </mxGeometry>
        </mxCell>
        <mxCell id="ZLP_nAVMuMgj4vYPf2Ic-85" value="int" style="shape=partialRectangle;connectable=0;top=0;left=0;bottom=0;right=0;align=center;spacingLeft=6;overflow=hidden;whiteSpace=wrap;html=1;verticalAlign=middle;labelBorderColor=none;labelBackgroundColor=none;fontSize=18;" vertex="1" parent="ZLP_nAVMuMgj4vYPf2Ic-82">
          <mxGeometry x="284.45833333333337" width="87.63690476190459" height="30" as="geometry">
            <mxRectangle width="87.63690476190459" height="30" as="alternateBounds" />
          </mxGeometry>
        </mxCell>
        <mxCell id="ZLP_nAVMuMgj4vYPf2Ic-86" style="shape=tableRow;horizontal=0;startSize=0;swimlaneHead=0;swimlaneBody=0;fillColor=none;collapsible=0;dropTarget=0;points=[[0,0.5],[1,0.5]];portConstraint=eastwest;top=0;left=0;right=0;bottom=0;" vertex="1" parent="ZLP_nAVMuMgj4vYPf2Ic-1">
          <mxGeometry y="660" width="372.09523809523796" height="30" as="geometry" />
        </mxCell>
        <mxCell id="ZLP_nAVMuMgj4vYPf2Ic-87" style="shape=partialRectangle;connectable=0;top=0;left=0;bottom=0;right=0;editable=1;overflow=hidden;whiteSpace=wrap;html=1;fontSize=18;" vertex="1" parent="ZLP_nAVMuMgj4vYPf2Ic-86">
          <mxGeometry width="30" height="30" as="geometry">
            <mxRectangle width="30" height="30" as="alternateBounds" />
          </mxGeometry>
        </mxCell>
        <mxCell id="ZLP_nAVMuMgj4vYPf2Ic-88" value="route_source_value" style="shape=partialRectangle;connectable=0;top=0;left=0;bottom=0;right=0;align=left;spacingLeft=6;overflow=hidden;whiteSpace=wrap;html=1;fontSize=18;" vertex="1" parent="ZLP_nAVMuMgj4vYPf2Ic-86">
          <mxGeometry x="30" width="254.45833333333337" height="30" as="geometry">
            <mxRectangle width="254.45833333333337" height="30" as="alternateBounds" />
          </mxGeometry>
        </mxCell>
        <mxCell id="ZLP_nAVMuMgj4vYPf2Ic-89" value="varchar" style="shape=partialRectangle;connectable=0;top=0;left=0;bottom=0;right=0;align=center;spacingLeft=6;overflow=hidden;whiteSpace=wrap;html=1;verticalAlign=middle;labelBorderColor=none;labelBackgroundColor=none;fontSize=18;" vertex="1" parent="ZLP_nAVMuMgj4vYPf2Ic-86">
          <mxGeometry x="284.45833333333337" width="87.63690476190459" height="30" as="geometry">
            <mxRectangle width="87.63690476190459" height="30" as="alternateBounds" />
          </mxGeometry>
        </mxCell>
        <mxCell id="ZLP_nAVMuMgj4vYPf2Ic-90" style="shape=tableRow;horizontal=0;startSize=0;swimlaneHead=0;swimlaneBody=0;fillColor=none;collapsible=0;dropTarget=0;points=[[0,0.5],[1,0.5]];portConstraint=eastwest;top=0;left=0;right=0;bottom=0;" vertex="1" parent="ZLP_nAVMuMgj4vYPf2Ic-1">
          <mxGeometry y="690" width="372.09523809523796" height="30" as="geometry" />
        </mxCell>
        <mxCell id="ZLP_nAVMuMgj4vYPf2Ic-91" style="shape=partialRectangle;connectable=0;top=0;left=0;bottom=0;right=0;editable=1;overflow=hidden;whiteSpace=wrap;html=1;fontSize=18;" vertex="1" parent="ZLP_nAVMuMgj4vYPf2Ic-90">
          <mxGeometry width="30" height="30" as="geometry">
            <mxRectangle width="30" height="30" as="alternateBounds" />
          </mxGeometry>
        </mxCell>
        <mxCell id="ZLP_nAVMuMgj4vYPf2Ic-92" value="dose_unit_value" style="shape=partialRectangle;connectable=0;top=0;left=0;bottom=0;right=0;align=left;spacingLeft=6;overflow=hidden;whiteSpace=wrap;html=1;fontSize=18;" vertex="1" parent="ZLP_nAVMuMgj4vYPf2Ic-90">
          <mxGeometry x="30" width="254.45833333333337" height="30" as="geometry">
            <mxRectangle width="254.45833333333337" height="30" as="alternateBounds" />
          </mxGeometry>
        </mxCell>
        <mxCell id="ZLP_nAVMuMgj4vYPf2Ic-93" value="varchar" style="shape=partialRectangle;connectable=0;top=0;left=0;bottom=0;right=0;align=center;spacingLeft=6;overflow=hidden;whiteSpace=wrap;html=1;verticalAlign=middle;labelBorderColor=none;labelBackgroundColor=none;fontSize=18;" vertex="1" parent="ZLP_nAVMuMgj4vYPf2Ic-90">
          <mxGeometry x="284.45833333333337" width="87.63690476190459" height="30" as="geometry">
            <mxRectangle width="87.63690476190459" height="30" as="alternateBounds" />
          </mxGeometry>
        </mxCell>
        <mxCell id="ZLP_nAVMuMgj4vYPf2Ic-228" value="&lt;font style=&quot;font-size: 24px;&quot;&gt;Person&lt;/font&gt;" style="whiteSpace=wrap;html=1;align=center;" vertex="1" parent="1">
          <mxGeometry x="403" y="215" width="100" height="40" as="geometry" />
        </mxCell>
        <mxCell id="ZLP_nAVMuMgj4vYPf2Ic-230" value="" style="endArrow=classic;html=1;rounded=0;edgeStyle=orthogonalEdgeStyle;exitX=0;exitY=0.5;exitDx=0;exitDy=0;" edge="1" parent="1" source="ZLP_nAVMuMgj4vYPf2Ic-5" target="ZLP_nAVMuMgj4vYPf2Ic-228">
          <mxGeometry width="50" height="50" relative="1" as="geometry">
            <mxPoint x="648" y="653" as="sourcePoint" />
            <mxPoint x="698" y="603" as="targetPoint" />
            <Array as="points">
              <mxPoint x="348" y="351" />
              <mxPoint x="348" y="235" />
            </Array>
          </mxGeometry>
        </mxCell>
        <mxCell id="ZLP_nAVMuMgj4vYPf2Ic-233" value="" style="endArrow=classic;html=1;rounded=0;edgeStyle=orthogonalEdgeStyle;exitX=1;exitY=0.5;exitDx=0;exitDy=0;" edge="1" parent="1" source="ZLP_nAVMuMgj4vYPf2Ic-116" target="ZLP_nAVMuMgj4vYPf2Ic-231">
          <mxGeometry width="50" height="50" relative="1" as="geometry">
            <mxPoint x="830" y="620" as="sourcePoint" />
            <mxPoint x="880" y="570" as="targetPoint" />
            <Array as="points">
              <mxPoint x="1198" y="441" />
              <mxPoint x="1198" y="361" />
            </Array>
          </mxGeometry>
        </mxCell>
        <mxCell id="ZLP_nAVMuMgj4vYPf2Ic-231" value="&lt;font style=&quot;font-size: 24px;&quot;&gt;Vocabularies&lt;/font&gt;" style="whiteSpace=wrap;html=1;align=center;" vertex="1" parent="1">
          <mxGeometry x="829" y="341" width="147" height="40" as="geometry" />
        </mxCell>
        <mxCell id="ZLP_nAVMuMgj4vYPf2Ic-238" style="edgeStyle=orthogonalEdgeStyle;rounded=0;orthogonalLoop=1;jettySize=auto;html=1;exitX=1;exitY=0.5;exitDx=0;exitDy=0;entryX=1;entryY=0.5;entryDx=0;entryDy=0;" edge="1" parent="1" source="ZLP_nAVMuMgj4vYPf2Ic-107" target="ZLP_nAVMuMgj4vYPf2Ic-231">
          <mxGeometry relative="1" as="geometry" />
        </mxCell>
        <mxCell id="ZLP_nAVMuMgj4vYPf2Ic-107" value="&lt;font style=&quot;font-size: 18px;&quot;&gt;Drug_strength&lt;/font&gt;" style="shape=table;startSize=30;container=1;collapsible=1;childLayout=tableLayout;fixedRows=1;rowLines=0;fontStyle=1;align=center;resizeLast=1;html=1;swimlaneFillColor=none;" vertex="1" parent="1">
          <mxGeometry x="822" y="395.98" width="356.5" height="390" as="geometry" />
        </mxCell>
        <mxCell id="ZLP_nAVMuMgj4vYPf2Ic-116" value="" style="shape=tableRow;horizontal=0;startSize=0;swimlaneHead=0;swimlaneBody=0;fillColor=none;collapsible=0;dropTarget=0;points=[[0,0.5],[1,0.5]];portConstraint=eastwest;top=0;left=0;right=0;bottom=0;" vertex="1" parent="ZLP_nAVMuMgj4vYPf2Ic-107">
          <mxGeometry y="30" width="356.5" height="30" as="geometry" />
        </mxCell>
        <mxCell id="ZLP_nAVMuMgj4vYPf2Ic-117" value="FK" style="shape=partialRectangle;connectable=0;top=0;left=0;bottom=0;right=0;editable=1;overflow=hidden;whiteSpace=wrap;html=1;fontSize=18;" vertex="1" parent="ZLP_nAVMuMgj4vYPf2Ic-116">
          <mxGeometry width="30" height="30" as="geometry">
            <mxRectangle width="30" height="30" as="alternateBounds" />
          </mxGeometry>
        </mxCell>
        <mxCell id="ZLP_nAVMuMgj4vYPf2Ic-118" value="drug_concept_id" style="shape=partialRectangle;connectable=0;top=0;left=0;bottom=0;right=0;align=left;spacingLeft=6;overflow=hidden;whiteSpace=wrap;html=1;fontSize=18;" vertex="1" parent="ZLP_nAVMuMgj4vYPf2Ic-116">
          <mxGeometry x="30" width="251.11538461538453" height="30" as="geometry">
            <mxRectangle width="251.11538461538453" height="30" as="alternateBounds" />
          </mxGeometry>
        </mxCell>
        <mxCell id="ZLP_nAVMuMgj4vYPf2Ic-119" value="int" style="shape=partialRectangle;connectable=0;top=0;left=0;bottom=0;right=0;align=center;spacingLeft=6;overflow=hidden;whiteSpace=wrap;html=1;verticalAlign=middle;labelBorderColor=none;labelBackgroundColor=none;fontSize=18;" vertex="1" parent="ZLP_nAVMuMgj4vYPf2Ic-116">
          <mxGeometry x="281.1153846153845" width="75.38461538461547" height="30" as="geometry">
            <mxRectangle width="75.38461538461547" height="30" as="alternateBounds" />
          </mxGeometry>
        </mxCell>
        <mxCell id="ZLP_nAVMuMgj4vYPf2Ic-120" value="" style="shape=tableRow;horizontal=0;startSize=0;swimlaneHead=0;swimlaneBody=0;fillColor=none;collapsible=0;dropTarget=0;points=[[0,0.5],[1,0.5]];portConstraint=eastwest;top=0;left=0;right=0;bottom=0;" vertex="1" parent="ZLP_nAVMuMgj4vYPf2Ic-107">
          <mxGeometry y="60" width="356.5" height="30" as="geometry" />
        </mxCell>
        <mxCell id="ZLP_nAVMuMgj4vYPf2Ic-121" value="FK" style="shape=partialRectangle;connectable=0;top=0;left=0;bottom=0;right=0;editable=1;overflow=hidden;whiteSpace=wrap;html=1;fontSize=18;" vertex="1" parent="ZLP_nAVMuMgj4vYPf2Ic-120">
          <mxGeometry width="30" height="30" as="geometry">
            <mxRectangle width="30" height="30" as="alternateBounds" />
          </mxGeometry>
        </mxCell>
        <mxCell id="ZLP_nAVMuMgj4vYPf2Ic-122" value="ingredient_concept_id" style="shape=partialRectangle;connectable=0;top=0;left=0;bottom=0;right=0;align=left;spacingLeft=6;overflow=hidden;whiteSpace=wrap;html=1;fontSize=18;" vertex="1" parent="ZLP_nAVMuMgj4vYPf2Ic-120">
          <mxGeometry x="30" width="251.11538461538453" height="30" as="geometry">
            <mxRectangle width="251.11538461538453" height="30" as="alternateBounds" />
          </mxGeometry>
        </mxCell>
        <mxCell id="ZLP_nAVMuMgj4vYPf2Ic-123" value="int" style="shape=partialRectangle;connectable=0;top=0;left=0;bottom=0;right=0;align=center;spacingLeft=6;overflow=hidden;whiteSpace=wrap;html=1;verticalAlign=middle;labelBorderColor=none;labelBackgroundColor=none;strokeWidth=1;fontSize=18;" vertex="1" parent="ZLP_nAVMuMgj4vYPf2Ic-120">
          <mxGeometry x="281.1153846153845" width="75.38461538461547" height="30" as="geometry">
            <mxRectangle width="75.38461538461547" height="30" as="alternateBounds" />
          </mxGeometry>
        </mxCell>
        <mxCell id="ZLP_nAVMuMgj4vYPf2Ic-124" style="shape=tableRow;horizontal=0;startSize=0;swimlaneHead=0;swimlaneBody=0;fillColor=none;collapsible=0;dropTarget=0;points=[[0,0.5],[1,0.5]];portConstraint=eastwest;top=0;left=0;right=0;bottom=0;" vertex="1" parent="ZLP_nAVMuMgj4vYPf2Ic-107">
          <mxGeometry y="90" width="356.5" height="30" as="geometry" />
        </mxCell>
        <mxCell id="ZLP_nAVMuMgj4vYPf2Ic-125" style="shape=partialRectangle;connectable=0;top=0;left=0;bottom=0;right=0;editable=1;overflow=hidden;whiteSpace=wrap;html=1;fontSize=18;" vertex="1" parent="ZLP_nAVMuMgj4vYPf2Ic-124">
          <mxGeometry width="30" height="30" as="geometry">
            <mxRectangle width="30" height="30" as="alternateBounds" />
          </mxGeometry>
        </mxCell>
        <mxCell id="ZLP_nAVMuMgj4vYPf2Ic-126" value="amount_value" style="shape=partialRectangle;connectable=0;top=0;left=0;bottom=0;right=0;align=left;spacingLeft=6;overflow=hidden;whiteSpace=wrap;html=1;fontSize=18;" vertex="1" parent="ZLP_nAVMuMgj4vYPf2Ic-124">
          <mxGeometry x="30" width="251.11538461538453" height="30" as="geometry">
            <mxRectangle width="251.11538461538453" height="30" as="alternateBounds" />
          </mxGeometry>
        </mxCell>
        <mxCell id="ZLP_nAVMuMgj4vYPf2Ic-127" value="float" style="shape=partialRectangle;connectable=0;top=0;left=0;bottom=0;right=0;align=center;spacingLeft=6;overflow=hidden;whiteSpace=wrap;html=1;verticalAlign=middle;labelBorderColor=none;labelBackgroundColor=none;fontSize=18;" vertex="1" parent="ZLP_nAVMuMgj4vYPf2Ic-124">
          <mxGeometry x="281.1153846153845" width="75.38461538461547" height="30" as="geometry">
            <mxRectangle width="75.38461538461547" height="30" as="alternateBounds" />
          </mxGeometry>
        </mxCell>
        <mxCell id="ZLP_nAVMuMgj4vYPf2Ic-128" style="shape=tableRow;horizontal=0;startSize=0;swimlaneHead=0;swimlaneBody=0;fillColor=none;collapsible=0;dropTarget=0;points=[[0,0.5],[1,0.5]];portConstraint=eastwest;top=0;left=0;right=0;bottom=0;" vertex="1" parent="ZLP_nAVMuMgj4vYPf2Ic-107">
          <mxGeometry y="120" width="356.5" height="30" as="geometry" />
        </mxCell>
        <mxCell id="ZLP_nAVMuMgj4vYPf2Ic-129" value="FK" style="shape=partialRectangle;connectable=0;top=0;left=0;bottom=0;right=0;editable=1;overflow=hidden;whiteSpace=wrap;html=1;fontSize=18;" vertex="1" parent="ZLP_nAVMuMgj4vYPf2Ic-128">
          <mxGeometry width="30" height="30" as="geometry">
            <mxRectangle width="30" height="30" as="alternateBounds" />
          </mxGeometry>
        </mxCell>
        <mxCell id="ZLP_nAVMuMgj4vYPf2Ic-130" value="amount_unit_concept_id" style="shape=partialRectangle;connectable=0;top=0;left=0;bottom=0;right=0;align=left;spacingLeft=6;overflow=hidden;whiteSpace=wrap;html=1;fontSize=18;" vertex="1" parent="ZLP_nAVMuMgj4vYPf2Ic-128">
          <mxGeometry x="30" width="251.11538461538453" height="30" as="geometry">
            <mxRectangle width="251.11538461538453" height="30" as="alternateBounds" />
          </mxGeometry>
        </mxCell>
        <mxCell id="ZLP_nAVMuMgj4vYPf2Ic-131" value="int" style="shape=partialRectangle;connectable=0;top=0;left=0;bottom=0;right=0;align=center;spacingLeft=6;overflow=hidden;whiteSpace=wrap;html=1;verticalAlign=middle;labelBorderColor=none;labelBackgroundColor=none;fontSize=18;" vertex="1" parent="ZLP_nAVMuMgj4vYPf2Ic-128">
          <mxGeometry x="281.1153846153845" width="75.38461538461547" height="30" as="geometry">
            <mxRectangle width="75.38461538461547" height="30" as="alternateBounds" />
          </mxGeometry>
        </mxCell>
        <mxCell id="ZLP_nAVMuMgj4vYPf2Ic-132" style="shape=tableRow;horizontal=0;startSize=0;swimlaneHead=0;swimlaneBody=0;fillColor=none;collapsible=0;dropTarget=0;points=[[0,0.5],[1,0.5]];portConstraint=eastwest;top=0;left=0;right=0;bottom=0;" vertex="1" parent="ZLP_nAVMuMgj4vYPf2Ic-107">
          <mxGeometry y="150" width="356.5" height="30" as="geometry" />
        </mxCell>
        <mxCell id="ZLP_nAVMuMgj4vYPf2Ic-133" style="shape=partialRectangle;connectable=0;top=0;left=0;bottom=0;right=0;editable=1;overflow=hidden;whiteSpace=wrap;html=1;fontSize=18;" vertex="1" parent="ZLP_nAVMuMgj4vYPf2Ic-132">
          <mxGeometry width="30" height="30" as="geometry">
            <mxRectangle width="30" height="30" as="alternateBounds" />
          </mxGeometry>
        </mxCell>
        <mxCell id="ZLP_nAVMuMgj4vYPf2Ic-134" value="numerator_value" style="shape=partialRectangle;connectable=0;top=0;left=0;bottom=0;right=0;align=left;spacingLeft=6;overflow=hidden;whiteSpace=wrap;html=1;fontSize=18;" vertex="1" parent="ZLP_nAVMuMgj4vYPf2Ic-132">
          <mxGeometry x="30" width="251.11538461538453" height="30" as="geometry">
            <mxRectangle width="251.11538461538453" height="30" as="alternateBounds" />
          </mxGeometry>
        </mxCell>
        <mxCell id="ZLP_nAVMuMgj4vYPf2Ic-135" value="float" style="shape=partialRectangle;connectable=0;top=0;left=0;bottom=0;right=0;align=center;spacingLeft=6;overflow=hidden;whiteSpace=wrap;html=1;verticalAlign=middle;labelBorderColor=none;labelBackgroundColor=none;fontSize=18;" vertex="1" parent="ZLP_nAVMuMgj4vYPf2Ic-132">
          <mxGeometry x="281.1153846153845" width="75.38461538461547" height="30" as="geometry">
            <mxRectangle width="75.38461538461547" height="30" as="alternateBounds" />
          </mxGeometry>
        </mxCell>
        <mxCell id="ZLP_nAVMuMgj4vYPf2Ic-136" style="shape=tableRow;horizontal=0;startSize=0;swimlaneHead=0;swimlaneBody=0;fillColor=none;collapsible=0;dropTarget=0;points=[[0,0.5],[1,0.5]];portConstraint=eastwest;top=0;left=0;right=0;bottom=0;" vertex="1" parent="ZLP_nAVMuMgj4vYPf2Ic-107">
          <mxGeometry y="180" width="356.5" height="30" as="geometry" />
        </mxCell>
        <mxCell id="ZLP_nAVMuMgj4vYPf2Ic-137" value="FK" style="shape=partialRectangle;connectable=0;top=0;left=0;bottom=0;right=0;editable=1;overflow=hidden;whiteSpace=wrap;html=1;fontSize=18;" vertex="1" parent="ZLP_nAVMuMgj4vYPf2Ic-136">
          <mxGeometry width="30" height="30" as="geometry">
            <mxRectangle width="30" height="30" as="alternateBounds" />
          </mxGeometry>
        </mxCell>
        <mxCell id="ZLP_nAVMuMgj4vYPf2Ic-138" value="numerator_unit_concept_id" style="shape=partialRectangle;connectable=0;top=0;left=0;bottom=0;right=0;align=left;spacingLeft=6;overflow=hidden;whiteSpace=wrap;html=1;fontSize=18;" vertex="1" parent="ZLP_nAVMuMgj4vYPf2Ic-136">
          <mxGeometry x="30" width="251.11538461538453" height="30" as="geometry">
            <mxRectangle width="251.11538461538453" height="30" as="alternateBounds" />
          </mxGeometry>
        </mxCell>
        <mxCell id="ZLP_nAVMuMgj4vYPf2Ic-139" value="int" style="shape=partialRectangle;connectable=0;top=0;left=0;bottom=0;right=0;align=center;spacingLeft=6;overflow=hidden;whiteSpace=wrap;html=1;verticalAlign=middle;labelBorderColor=none;labelBackgroundColor=none;fontSize=18;" vertex="1" parent="ZLP_nAVMuMgj4vYPf2Ic-136">
          <mxGeometry x="281.1153846153845" width="75.38461538461547" height="30" as="geometry">
            <mxRectangle width="75.38461538461547" height="30" as="alternateBounds" />
          </mxGeometry>
        </mxCell>
        <mxCell id="ZLP_nAVMuMgj4vYPf2Ic-216" style="shape=tableRow;horizontal=0;startSize=0;swimlaneHead=0;swimlaneBody=0;fillColor=none;collapsible=0;dropTarget=0;points=[[0,0.5],[1,0.5]];portConstraint=eastwest;top=0;left=0;right=0;bottom=0;" vertex="1" parent="ZLP_nAVMuMgj4vYPf2Ic-107">
          <mxGeometry y="210" width="356.5" height="30" as="geometry" />
        </mxCell>
        <mxCell id="ZLP_nAVMuMgj4vYPf2Ic-217" style="shape=partialRectangle;connectable=0;top=0;left=0;bottom=0;right=0;editable=1;overflow=hidden;whiteSpace=wrap;html=1;fontSize=18;" vertex="1" parent="ZLP_nAVMuMgj4vYPf2Ic-216">
          <mxGeometry width="30" height="30" as="geometry">
            <mxRectangle width="30" height="30" as="alternateBounds" />
          </mxGeometry>
        </mxCell>
        <mxCell id="ZLP_nAVMuMgj4vYPf2Ic-218" value="denominator_value" style="shape=partialRectangle;connectable=0;top=0;left=0;bottom=0;right=0;align=left;spacingLeft=6;overflow=hidden;whiteSpace=wrap;html=1;fontSize=18;" vertex="1" parent="ZLP_nAVMuMgj4vYPf2Ic-216">
          <mxGeometry x="30" width="251.11538461538453" height="30" as="geometry">
            <mxRectangle width="251.11538461538453" height="30" as="alternateBounds" />
          </mxGeometry>
        </mxCell>
        <mxCell id="ZLP_nAVMuMgj4vYPf2Ic-219" value="float" style="shape=partialRectangle;connectable=0;top=0;left=0;bottom=0;right=0;align=center;spacingLeft=6;overflow=hidden;whiteSpace=wrap;html=1;verticalAlign=middle;labelBorderColor=none;labelBackgroundColor=none;fontSize=18;" vertex="1" parent="ZLP_nAVMuMgj4vYPf2Ic-216">
          <mxGeometry x="281.1153846153845" width="75.38461538461547" height="30" as="geometry">
            <mxRectangle width="75.38461538461547" height="30" as="alternateBounds" />
          </mxGeometry>
        </mxCell>
        <mxCell id="ZLP_nAVMuMgj4vYPf2Ic-212" style="shape=tableRow;horizontal=0;startSize=0;swimlaneHead=0;swimlaneBody=0;fillColor=none;collapsible=0;dropTarget=0;points=[[0,0.5],[1,0.5]];portConstraint=eastwest;top=0;left=0;right=0;bottom=0;" vertex="1" parent="ZLP_nAVMuMgj4vYPf2Ic-107">
          <mxGeometry y="240" width="356.5" height="30" as="geometry" />
        </mxCell>
        <mxCell id="ZLP_nAVMuMgj4vYPf2Ic-213" value="FK" style="shape=partialRectangle;connectable=0;top=0;left=0;bottom=0;right=0;editable=1;overflow=hidden;whiteSpace=wrap;html=1;fontSize=18;" vertex="1" parent="ZLP_nAVMuMgj4vYPf2Ic-212">
          <mxGeometry width="30" height="30" as="geometry">
            <mxRectangle width="30" height="30" as="alternateBounds" />
          </mxGeometry>
        </mxCell>
        <mxCell id="ZLP_nAVMuMgj4vYPf2Ic-214" value="denominator_unit_concept_id" style="shape=partialRectangle;connectable=0;top=0;left=0;bottom=0;right=0;align=left;spacingLeft=6;overflow=hidden;whiteSpace=wrap;html=1;fontSize=18;" vertex="1" parent="ZLP_nAVMuMgj4vYPf2Ic-212">
          <mxGeometry x="30" width="251.11538461538453" height="30" as="geometry">
            <mxRectangle width="251.11538461538453" height="30" as="alternateBounds" />
          </mxGeometry>
        </mxCell>
        <mxCell id="ZLP_nAVMuMgj4vYPf2Ic-215" value="int" style="shape=partialRectangle;connectable=0;top=0;left=0;bottom=0;right=0;align=center;spacingLeft=6;overflow=hidden;whiteSpace=wrap;html=1;verticalAlign=middle;labelBorderColor=none;labelBackgroundColor=none;fontSize=18;" vertex="1" parent="ZLP_nAVMuMgj4vYPf2Ic-212">
          <mxGeometry x="281.1153846153845" width="75.38461538461547" height="30" as="geometry">
            <mxRectangle width="75.38461538461547" height="30" as="alternateBounds" />
          </mxGeometry>
        </mxCell>
        <mxCell id="ZLP_nAVMuMgj4vYPf2Ic-208" style="shape=tableRow;horizontal=0;startSize=0;swimlaneHead=0;swimlaneBody=0;fillColor=none;collapsible=0;dropTarget=0;points=[[0,0.5],[1,0.5]];portConstraint=eastwest;top=0;left=0;right=0;bottom=0;" vertex="1" parent="ZLP_nAVMuMgj4vYPf2Ic-107">
          <mxGeometry y="270" width="356.5" height="30" as="geometry" />
        </mxCell>
        <mxCell id="ZLP_nAVMuMgj4vYPf2Ic-209" style="shape=partialRectangle;connectable=0;top=0;left=0;bottom=0;right=0;editable=1;overflow=hidden;whiteSpace=wrap;html=1;fontSize=18;" vertex="1" parent="ZLP_nAVMuMgj4vYPf2Ic-208">
          <mxGeometry width="30" height="30" as="geometry">
            <mxRectangle width="30" height="30" as="alternateBounds" />
          </mxGeometry>
        </mxCell>
        <mxCell id="ZLP_nAVMuMgj4vYPf2Ic-210" value="box_size" style="shape=partialRectangle;connectable=0;top=0;left=0;bottom=0;right=0;align=left;spacingLeft=6;overflow=hidden;whiteSpace=wrap;html=1;fontSize=18;" vertex="1" parent="ZLP_nAVMuMgj4vYPf2Ic-208">
          <mxGeometry x="30" width="251.11538461538453" height="30" as="geometry">
            <mxRectangle width="251.11538461538453" height="30" as="alternateBounds" />
          </mxGeometry>
        </mxCell>
        <mxCell id="ZLP_nAVMuMgj4vYPf2Ic-211" value="int" style="shape=partialRectangle;connectable=0;top=0;left=0;bottom=0;right=0;align=center;spacingLeft=6;overflow=hidden;whiteSpace=wrap;html=1;verticalAlign=middle;labelBorderColor=none;labelBackgroundColor=none;fontSize=18;" vertex="1" parent="ZLP_nAVMuMgj4vYPf2Ic-208">
          <mxGeometry x="281.1153846153845" width="75.38461538461547" height="30" as="geometry">
            <mxRectangle width="75.38461538461547" height="30" as="alternateBounds" />
          </mxGeometry>
        </mxCell>
        <mxCell id="ZLP_nAVMuMgj4vYPf2Ic-204" style="shape=tableRow;horizontal=0;startSize=0;swimlaneHead=0;swimlaneBody=0;fillColor=none;collapsible=0;dropTarget=0;points=[[0,0.5],[1,0.5]];portConstraint=eastwest;top=0;left=0;right=0;bottom=0;" vertex="1" parent="ZLP_nAVMuMgj4vYPf2Ic-107">
          <mxGeometry y="300" width="356.5" height="30" as="geometry" />
        </mxCell>
        <mxCell id="ZLP_nAVMuMgj4vYPf2Ic-205" style="shape=partialRectangle;connectable=0;top=0;left=0;bottom=0;right=0;editable=1;overflow=hidden;whiteSpace=wrap;html=1;fontSize=18;" vertex="1" parent="ZLP_nAVMuMgj4vYPf2Ic-204">
          <mxGeometry width="30" height="30" as="geometry">
            <mxRectangle width="30" height="30" as="alternateBounds" />
          </mxGeometry>
        </mxCell>
        <mxCell id="ZLP_nAVMuMgj4vYPf2Ic-206" value="valid_start_date" style="shape=partialRectangle;connectable=0;top=0;left=0;bottom=0;right=0;align=left;spacingLeft=6;overflow=hidden;whiteSpace=wrap;html=1;fontSize=18;" vertex="1" parent="ZLP_nAVMuMgj4vYPf2Ic-204">
          <mxGeometry x="30" width="251.11538461538453" height="30" as="geometry">
            <mxRectangle width="251.11538461538453" height="30" as="alternateBounds" />
          </mxGeometry>
        </mxCell>
        <mxCell id="ZLP_nAVMuMgj4vYPf2Ic-207" value="date" style="shape=partialRectangle;connectable=0;top=0;left=0;bottom=0;right=0;align=center;spacingLeft=6;overflow=hidden;whiteSpace=wrap;html=1;verticalAlign=middle;labelBorderColor=none;labelBackgroundColor=none;fontSize=18;" vertex="1" parent="ZLP_nAVMuMgj4vYPf2Ic-204">
          <mxGeometry x="281.1153846153845" width="75.38461538461547" height="30" as="geometry">
            <mxRectangle width="75.38461538461547" height="30" as="alternateBounds" />
          </mxGeometry>
        </mxCell>
        <mxCell id="ZLP_nAVMuMgj4vYPf2Ic-200" style="shape=tableRow;horizontal=0;startSize=0;swimlaneHead=0;swimlaneBody=0;fillColor=none;collapsible=0;dropTarget=0;points=[[0,0.5],[1,0.5]];portConstraint=eastwest;top=0;left=0;right=0;bottom=0;" vertex="1" parent="ZLP_nAVMuMgj4vYPf2Ic-107">
          <mxGeometry y="330" width="356.5" height="30" as="geometry" />
        </mxCell>
        <mxCell id="ZLP_nAVMuMgj4vYPf2Ic-201" style="shape=partialRectangle;connectable=0;top=0;left=0;bottom=0;right=0;editable=1;overflow=hidden;whiteSpace=wrap;html=1;fontSize=18;" vertex="1" parent="ZLP_nAVMuMgj4vYPf2Ic-200">
          <mxGeometry width="30" height="30" as="geometry">
            <mxRectangle width="30" height="30" as="alternateBounds" />
          </mxGeometry>
        </mxCell>
        <mxCell id="ZLP_nAVMuMgj4vYPf2Ic-202" value="valid_end_date" style="shape=partialRectangle;connectable=0;top=0;left=0;bottom=0;right=0;align=left;spacingLeft=6;overflow=hidden;whiteSpace=wrap;html=1;fontSize=18;" vertex="1" parent="ZLP_nAVMuMgj4vYPf2Ic-200">
          <mxGeometry x="30" width="251.11538461538453" height="30" as="geometry">
            <mxRectangle width="251.11538461538453" height="30" as="alternateBounds" />
          </mxGeometry>
        </mxCell>
        <mxCell id="ZLP_nAVMuMgj4vYPf2Ic-203" value="date" style="shape=partialRectangle;connectable=0;top=0;left=0;bottom=0;right=0;align=center;spacingLeft=6;overflow=hidden;whiteSpace=wrap;html=1;verticalAlign=middle;labelBorderColor=none;labelBackgroundColor=none;fontSize=18;" vertex="1" parent="ZLP_nAVMuMgj4vYPf2Ic-200">
          <mxGeometry x="281.1153846153845" width="75.38461538461547" height="30" as="geometry">
            <mxRectangle width="75.38461538461547" height="30" as="alternateBounds" />
          </mxGeometry>
        </mxCell>
        <mxCell id="ZLP_nAVMuMgj4vYPf2Ic-220" style="shape=tableRow;horizontal=0;startSize=0;swimlaneHead=0;swimlaneBody=0;fillColor=none;collapsible=0;dropTarget=0;points=[[0,0.5],[1,0.5]];portConstraint=eastwest;top=0;left=0;right=0;bottom=0;" vertex="1" parent="ZLP_nAVMuMgj4vYPf2Ic-107">
          <mxGeometry y="360" width="356.5" height="30" as="geometry" />
        </mxCell>
        <mxCell id="ZLP_nAVMuMgj4vYPf2Ic-221" style="shape=partialRectangle;connectable=0;top=0;left=0;bottom=0;right=0;editable=1;overflow=hidden;whiteSpace=wrap;html=1;fontSize=18;" vertex="1" parent="ZLP_nAVMuMgj4vYPf2Ic-220">
          <mxGeometry width="30" height="30" as="geometry">
            <mxRectangle width="30" height="30" as="alternateBounds" />
          </mxGeometry>
        </mxCell>
        <mxCell id="ZLP_nAVMuMgj4vYPf2Ic-222" value="invalid_reason" style="shape=partialRectangle;connectable=0;top=0;left=0;bottom=0;right=0;align=left;spacingLeft=6;overflow=hidden;whiteSpace=wrap;html=1;fontSize=18;" vertex="1" parent="ZLP_nAVMuMgj4vYPf2Ic-220">
          <mxGeometry x="30" width="251.11538461538453" height="30" as="geometry">
            <mxRectangle width="251.11538461538453" height="30" as="alternateBounds" />
          </mxGeometry>
        </mxCell>
        <mxCell id="ZLP_nAVMuMgj4vYPf2Ic-223" value="varchar" style="shape=partialRectangle;connectable=0;top=0;left=0;bottom=0;right=0;align=center;spacingLeft=6;overflow=hidden;whiteSpace=wrap;html=1;verticalAlign=middle;labelBorderColor=none;labelBackgroundColor=none;fontSize=18;" vertex="1" parent="ZLP_nAVMuMgj4vYPf2Ic-220">
          <mxGeometry x="281.1153846153845" width="75.38461538461547" height="30" as="geometry">
            <mxRectangle width="75.38461538461547" height="30" as="alternateBounds" />
          </mxGeometry>
        </mxCell>
        <mxCell id="ZLP_nAVMuMgj4vYPf2Ic-236" style="edgeStyle=orthogonalEdgeStyle;rounded=0;orthogonalLoop=1;jettySize=auto;html=1;entryX=1;entryY=0.5;entryDx=0;entryDy=0;exitX=1;exitY=0.5;exitDx=0;exitDy=0;" edge="1" parent="1" source="ZLP_nAVMuMgj4vYPf2Ic-120" target="ZLP_nAVMuMgj4vYPf2Ic-231">
          <mxGeometry relative="1" as="geometry">
            <Array as="points">
              <mxPoint x="1199" y="471" />
              <mxPoint x="1199" y="361" />
            </Array>
          </mxGeometry>
        </mxCell>
        <mxCell id="ZLP_nAVMuMgj4vYPf2Ic-237" style="edgeStyle=orthogonalEdgeStyle;rounded=0;orthogonalLoop=1;jettySize=auto;html=1;exitX=1;exitY=0.5;exitDx=0;exitDy=0;entryX=1;entryY=0.5;entryDx=0;entryDy=0;" edge="1" parent="1" source="ZLP_nAVMuMgj4vYPf2Ic-128" target="ZLP_nAVMuMgj4vYPf2Ic-231">
          <mxGeometry relative="1" as="geometry" />
        </mxCell>
        <mxCell id="ZLP_nAVMuMgj4vYPf2Ic-239" style="edgeStyle=orthogonalEdgeStyle;rounded=0;orthogonalLoop=1;jettySize=auto;html=1;exitX=1;exitY=0.5;exitDx=0;exitDy=0;entryX=1;entryY=0.5;entryDx=0;entryDy=0;" edge="1" parent="1" source="ZLP_nAVMuMgj4vYPf2Ic-212" target="ZLP_nAVMuMgj4vYPf2Ic-231">
          <mxGeometry relative="1" as="geometry">
            <mxPoint x="977.8888888888887" y="358.44444444444434" as="targetPoint" />
          </mxGeometry>
        </mxCell>
        <mxCell id="ZLP_nAVMuMgj4vYPf2Ic-240" style="edgeStyle=orthogonalEdgeStyle;rounded=0;orthogonalLoop=1;jettySize=auto;html=1;entryX=0;entryY=0.5;entryDx=0;entryDy=0;" edge="1" parent="1" source="ZLP_nAVMuMgj4vYPf2Ic-34" target="ZLP_nAVMuMgj4vYPf2Ic-231">
          <mxGeometry relative="1" as="geometry">
            <Array as="points">
              <mxPoint x="777" y="561" />
              <mxPoint x="777" y="361" />
            </Array>
          </mxGeometry>
        </mxCell>
        <mxCell id="ZLP_nAVMuMgj4vYPf2Ic-232" value="" style="endArrow=classic;html=1;rounded=0;edgeStyle=orthogonalEdgeStyle;entryX=0;entryY=0.5;entryDx=0;entryDy=0;" edge="1" parent="1" source="ZLP_nAVMuMgj4vYPf2Ic-8" target="ZLP_nAVMuMgj4vYPf2Ic-231">
          <mxGeometry width="50" height="50" relative="1" as="geometry">
            <mxPoint x="738" y="591" as="sourcePoint" />
            <mxPoint x="672" y="379" as="targetPoint" />
            <Array as="points">
              <mxPoint x="776" y="381" />
              <mxPoint x="776" y="361" />
            </Array>
          </mxGeometry>
        </mxCell>
        <mxCell id="ZLP_nAVMuMgj4vYPf2Ic-244" style="edgeStyle=orthogonalEdgeStyle;rounded=0;orthogonalLoop=1;jettySize=auto;html=1;" edge="1" parent="1" source="ZLP_nAVMuMgj4vYPf2Ic-66" target="ZLP_nAVMuMgj4vYPf2Ic-245">
          <mxGeometry relative="1" as="geometry">
            <mxPoint x="821" y="928" as="targetPoint" />
            <Array as="points">
              <mxPoint x="770" y="799" />
              <mxPoint x="770" y="870" />
            </Array>
          </mxGeometry>
        </mxCell>
        <mxCell id="ZLP_nAVMuMgj4vYPf2Ic-245" value="&lt;font style=&quot;font-size: 24px;&quot;&gt;Standardised&amp;nbsp;&lt;/font&gt;&lt;div&gt;&lt;font style=&quot;font-size: 24px;&quot;&gt;Health System&lt;/font&gt;&lt;/div&gt;" style="rounded=0;whiteSpace=wrap;html=1;" vertex="1" parent="1">
          <mxGeometry x="833" y="847" width="260" height="82" as="geometry" />
        </mxCell>
      </root>
    </mxGraphModel>
  </diagram>
</mxfile>
